# Alias OBJ Model File
# Exported from SketchUp, (c) 2000-2012 Trimble Navigation Limited
# File units = millimeters

mtllib Tree_2.mtl

g Mesh1 Model

usemtl _1
v 1500 0 500
vt -59.0551 -19.685
vn 0 -1 -0
v -500 0 500
vt 19.685 -19.685
v -500 0 -1500
vt 19.685 59.0551
v 1500 0 -1500
vt -59.0551 59.0551
f 1/1/1 2/2/1 3/3/1 4/4/1 

vt -19.685 0
vn 0 0 1
vt 59.0551 0
v 1500 3000 500
vt 59.0551 118.11
v -500 3000 500
vt -19.685 118.11
f 2/5/2 1/6/2 5/7/2 6/8/2 

vn 1 0 -0
v 1500 3000 -1500
f 1/5/3 4/6/3 7/7/3 5/8/3 

vt -59.0551 0
vn 0 0 -1
vt 19.685 0
v -500 3000 -1500
vt 19.685 118.11
vt -59.0551 118.11
f 4/9/4 3/10/4 8/11/4 7/12/4 

vn -1 0 -0
f 3/9/5 2/10/5 6/11/5 8/12/5 

usemtl _2
v -3000 3000 3000
vt 118.11 -118.11
f 6/2/1 9/13/1 8/3/1

v 4000 3000 3000
vt -157.48 -118.11
f 9/13/1 6/2/1 10/14/1

f 10/14/1 6/2/1 5/1/1

v 4000 3000 -4000
vt -157.48 157.48
f 10/14/1 5/1/1 11/15/1

f 7/4/1 11/15/1 5/1/1

f 8/3/1 11/15/1 7/4/1

v -3000 3000 -4000
vt 118.11 157.48
f 8/3/1 12/16/1 11/15/1

f 12/16/1 8/3/1 9/13/1

vt -157.48 118.11
vt 118.11 118.11
v -3000 7500 3000
vt 118.11 295.276
v -3000 7500 -4000
vt -157.48 295.276
f 12/17/5 9/18/5 13/19/5 14/20/5 

vt -118.11 118.11
vt 157.48 118.11
v 4000 7500 3000
vt 157.48 295.276
vt -118.11 295.276
f 9/21/2 10/22/2 15/23/2 13/24/2 

v 4000 7500 -4000
f 10/21/3 11/22/3 16/23/3 15/24/3 

f 11/17/4 12/18/4 14/19/4 16/20/4 

vt -118.11 157.48
vn 0 1 -0
v -1750 7500 -2750
vt -68.8976 108.268
vt 157.48 157.48
f 14/25/6 17/26/6 16/27/6

v -1750 7500 1750
vt -68.8976 -68.8976
f 17/26/6 14/25/6 18/28/6

vt -118.11 -118.11
f 13/29/6 18/28/6 14/25/6

vt 157.48 -118.11
f 18/28/6 13/29/6 15/30/6

v 2750 7500 1750
vt 108.268 -68.8976
f 18/28/6 15/30/6 19/31/6

v 2750 7500 -2750
vt 108.268 108.268
f 19/31/6 15/30/6 20/32/6

f 16/27/6 20/32/6 15/30/6

f 16/27/6 17/26/6 20/32/6

v -1750 12000 -2750
vt 68.8976 472.441
v 2750 12000 -2750
vt -108.268 472.441
vt -108.268 295.276
vt 68.8976 295.276
f 21/33/4 22/34/4 20/35/4 17/36/4 

v -500 12000 -1500
vt -19.685 59.0551
f 21/26/6 23/37/6 22/32/6

v -500 12000 500
vt -19.685 -19.685
f 23/37/6 21/26/6 24/38/6

v -1750 12000 1750
f 25/28/6 24/38/6 21/26/6

v 2750 12000 1750
f 24/38/6 25/28/6 26/31/6

vt 108.268 472.441
vt -68.8976 472.441
vt -68.8976 295.276
vt 108.268 295.276
f 26/39/2 25/40/2 18/41/2 19/42/2 

f 25/33/5 21/34/5 17/35/5 18/36/5 

f 22/39/3 26/40/3 19/41/3 20/42/3 

v 1500 12000 -1500
vt 59.0551 59.0551
f 22/32/6 27/43/6 26/31/6

f 22/32/6 23/37/6 27/43/6

vt -59.0551 472.441
vt 19.685 472.441
v -500 16000 -1500
vt 19.685 629.921
v 1500 16000 -1500
vt -59.0551 629.921
f 27/44/4 23/45/4 28/46/4 29/47/4 

v -500 16000 500
f 23/44/5 24/45/5 30/46/5 28/47/5 

vt -19.685 472.441
v 1500 12000 500
vt 59.0551 472.441
v 1500 16000 500
vt 59.0551 629.921
vt -19.685 629.921
f 24/48/2 31/49/2 32/50/2 30/51/2 

vt 59.0551 -19.685
f 24/38/6 26/31/6 31/52/6

f 31/52/6 26/31/6 27/43/6

f 31/48/3 27/49/3 29/50/3 32/51/3 

f 28/37/6 30/38/6 32/52/6 29/43/6 

